<?xml version="1.0"?>
<svg version="1.1" xmlns="http://www.w3.org/2000/svg" width="200" height="40" style=""><path fill="#ed181b" d="M29,29.464c0,3.892-3.164,5.992-6.804,5.992c-1.68,0-3.668-0.308-5.348-0.896c-0.364-0.14-0.476-0.308-0.476-0.532c0-0.112,0-0.224,0.056-0.364l0.588-1.82c0.084-0.28,0.224-0.448,0.504-0.448c0.112,0,0.252,0.028,0.42,0.084c1.316,0.476,2.772,0.84,4.172,0.84c1.512,0,3.22-0.728,3.22-2.492c0-1.288-0.952-1.988-2.044-2.52l-3.64-1.82c-1.988-0.98-3.304-2.632-3.304-4.816c0-3.416,3.36-5.292,6.468-5.292c1.848,0,3.388,0.28,5.012,0.98c0.364,0.168,0.56,0.336,0.56,0.56c0,0.112-0.028,0.224-0.084,0.364l-0.672,1.708c-0.112,0.308-0.28,0.42-0.476,0.42c-0.14,0-0.28-0.056-0.448-0.112c-1.148-0.476-2.576-0.868-3.696-0.868c-1.316,0-2.828,0.56-2.828,2.128c0,1.148,1.064,1.82,1.988,2.268l3.108,1.512c2.212,1.064,3.724,2.548,3.724,5.124z M46.43,28.148c0,2.128-0.644,4.06-1.82,5.432c-1.036,1.176-2.492,1.904-4.312,1.904c-1.288,0-2.576-0.476-3.388-1.316l0,6.272c0,0.56-0.252,0.728-0.728,0.728l-1.96,0c-0.448,0-0.672-0.252-0.672-0.728l0-18.256c0-0.476,0.224-0.644,0.672-0.644l1.68,0c0.476,0,0.728,0.112,0.756,0.532l0.028,0.756c0.812-0.924,2.408-1.624,3.92-1.624c1.848,0,3.136,0.7,4.06,1.708c1.204,1.316,1.764,3.276,1.764,5.236z M42.902,28.316c0-1.316-0.252-2.464-0.812-3.248c-0.532-0.756-1.316-1.148-2.296-1.148c-1.036,0-2.324,0.672-2.884,1.372l0,6.104c0.56,0.756,1.68,1.372,2.744,1.372c0.98,0,1.764-0.448,2.24-1.036c0.7-0.868,1.008-2.044,1.008-3.416z M54.2,34.42c0,0.476-0.224,0.7-0.616,0.7l-2.128,0c-0.392,0-0.644-0.196-0.644-0.672l0-18.368c0-0.476,0.196-0.616,0.56-0.672l2.016-0.28c0.056,0,0.14-0.028,0.196-0.028c0.336,0,0.616,0.168,0.616,0.616l0,18.704z M71.266,28.288c0,0.672-0.224,0.812-0.924,0.812l-8.204,0c0.224,2.156,1.792,3.64,4.004,3.64c1.176,0,2.408-0.28,3.444-0.672c0.112-0.028,0.196-0.084,0.308-0.084c0.196,0,0.336,0.112,0.392,0.336l0.392,1.428c0.028,0.14,0.056,0.252,0.056,0.336c0,0.196-0.112,0.336-0.448,0.476c-1.372,0.616-3.248,0.896-4.704,0.896c-4.396,0-7-2.8-7-7.168c0-4.2,2.772-7.112,6.944-7.112c1.708,0,3.108,0.644,4.088,1.68c1.288,1.344,1.652,3.108,1.652,5.012l0,0.42z M67.934,26.888l0-0.308c-0.056-1.456-0.896-2.8-2.604-2.8c-1.82,0-2.912,1.456-3.136,3.108l5.74,0z M87.66,34.392c0,0.476-0.168,0.728-0.672,0.728l-2.016,0c-0.504,0-0.672-0.252-0.672-0.728l0-7.616c0-1.54-0.42-2.632-2.128-2.632c-1.092,0-2.436,0.588-3.304,1.344l0,8.932c0,0.476-0.196,0.7-0.672,0.7l-2.044,0c-0.42,0-0.672-0.224-0.672-0.672l0-12.208c0-0.448,0.196-0.7,0.7-0.7l1.82,0c0.392,0,0.644,0.112,0.672,0.532l0.028,0.728c1.288-1.036,2.912-1.624,4.536-1.624c3.136,0,4.424,1.96,4.424,5.012l0,8.204z M104.922,34.42c0,0.476-0.28,0.7-0.616,0.7l-1.82,0c-0.448,0-0.644-0.224-0.672-0.56l-0.056-0.756c-0.784,0.896-2.352,1.652-3.808,1.652c-4.06,0-5.908-3.22-5.908-6.972c0-3.92,2.184-7.336,6.132-7.336c1.26,0,2.576,0.504,3.36,1.316l0-6.3c0-0.504,0.14-0.7,0.588-0.756l2.072-0.28c0.028,0,0.252-0.028,0.28-0.028c0.336,0,0.448,0.14,0.448,0.56l0,18.76z M101.534,31.312l0-6.076c-0.56-0.756-1.624-1.372-2.688-1.372c-2.268,0-3.276,2.128-3.276,4.424s0.84,4.424,3.108,4.424c1.036,0,2.296-0.7,2.856-1.4z M113.896,17.984c0,1.092-0.952,1.764-1.876,1.764s-1.904-0.616-1.904-1.736s0.924-1.792,1.904-1.792c0.952,0,1.876,0.644,1.876,1.764z M113.728,34.42c0,0.504-0.224,0.7-0.7,0.7l-1.96,0c-0.504,0-0.728-0.196-0.728-0.7l0-12.236c0-0.476,0.28-0.644,0.728-0.644l1.96,0c0.448,0,0.7,0.14,0.7,0.644l0,12.236z M131.158,34.42c0,0.476-0.28,0.7-0.616,0.7l-1.82,0c-0.448,0-0.644-0.224-0.672-0.56l-0.056-0.756c-0.784,0.896-2.352,1.652-3.808,1.652c-4.06,0-5.908-3.22-5.908-6.972c0-3.92,2.184-7.336,6.132-7.336c1.26,0,2.576,0.504,3.36,1.316l0-6.3c0-0.504,0.14-0.7,0.588-0.756l2.072-0.28c0.028,0,0.252-0.028,0.28-0.028c0.336,0,0.448,0.14,0.448,0.56l0,18.76z M127.77,31.312l0-6.076c-0.56-0.756-1.624-1.372-2.688-1.372c-2.268,0-3.276,2.128-3.276,4.424s0.84,4.424,3.108,4.424c1.036,0,2.296-0.7,2.856-1.4z"/><path fill="#" d=""/></svg>
